<svg width="800" height="800" viewBox="0 0 800 800" fill="none" xmlns="http://www.w3.org/2000/svg">
<path d="M412.5 36.0844L708.91 207.217C716.645 211.683 721.41 219.936 721.41 228.868V571.132C721.41 580.064 716.645 588.317 708.91 592.783L412.5 763.916C404.765 768.381 395.235 768.381 387.5 763.916L91.0899 592.783C83.3548 588.317 78.5898 580.064 78.5898 571.133L78.5898 228.868C78.5898 219.936 83.3548 211.683 91.0898 207.217L387.5 36.0844C395.235 31.6186 404.765 31.6186 412.5 36.0844Z" stroke="black" stroke-width="50"/>
<path d="M345.5 288.5H313H287C279 288.1 280 293.667 281.5 296.5L357.5 398.5C332.333 432 280.9 500.6 276.5 507C272.1 513.4 278 515.667 281.5 516C300.167 515.833 338.6 515.6 343 516C347.4 516.4 351.833 511.833 353.5 509.5L399.5 440C414 462 443.6 507 446 511C448.4 515 453 516 455 516H517.5C525.1 516 523.667 509.667 522 506.5L441 398.5C464 367.833 511.2 304.8 516 298C520.8 291.2 515 288.833 511.5 288.5H452.5C447.7 288.5 444.833 291.5 444 293L399.5 358C385.167 336.833 355.9 293.9 353.5 291.5C351.1 289.1 347.167 288.5 345.5 288.5Z" fill="black"/>
<line x1="399" y1="643" x2="399" y2="743" stroke="black" stroke-width="20"/>
<line x1="695.692" y1="226.641" x2="609.285" y2="276.978" stroke="black" stroke-width="20"/>
<line y1="-10" x2="100" y2="-10" transform="matrix(0.86407 0.503371 0.503371 -0.86407 109 218)" stroke="black" stroke-width="20"/>
<line x1="189.441" y1="519.641" x2="103.034" y2="569.978" stroke="black" stroke-width="20"/>
<line y1="-10" x2="100" y2="-10" transform="matrix(0.86407 0.503371 0.503371 -0.86407 615 511)" stroke="black" stroke-width="20"/>
<line x1="399" y1="57" x2="399" y2="157" stroke="black" stroke-width="20"/>
</svg>
