<svg width="1024" height="1024" viewBox="0 0 1024 1024" fill="none" xmlns="http://www.w3.org/2000/svg">
<path d="M499.5 148.084C507.235 143.619 516.765 143.619 524.5 148.084L820.91 319.217C828.645 323.683 833.41 331.936 833.41 340.868V683.132C833.41 692.064 828.645 700.317 820.91 704.783L524.5 875.916C516.765 880.381 507.235 880.381 499.5 875.916L203.09 704.783C195.355 700.317 190.59 692.064 190.59 683.133L190.59 340.868C190.59 331.936 195.355 323.683 203.09 319.217L499.5 148.084Z" stroke="white" stroke-width="50"/>
<path d="M457.501 400.5H425.001H399.001C391.001 400.1 392.001 405.667 393.501 408.5L469.501 510.5C444.334 544 392.901 612.6 388.501 619C384.101 625.4 390.001 627.667 393.501 628C412.168 627.833 450.601 627.6 455.001 628C459.401 628.4 463.834 623.833 465.501 621.5L511.501 552C526.001 574 555.601 619 558.001 623C560.401 627 565.001 628 567.001 628H629.501C637.101 628 635.668 621.667 634.001 618.5L553.001 510.5C576.001 479.833 623.201 416.8 628.001 410C632.801 403.2 627.001 400.833 623.501 400.5H564.501C559.701 400.5 556.834 403.5 556.001 405L511.501 470C497.168 448.833 467.901 405.9 465.501 403.5C463.101 401.1 459.168 400.5 457.501 400.5Z" fill="white"/>
<line x1="511" y1="755" x2="511" y2="855" stroke="white" stroke-width="20"/>
<line x1="807.692" y1="338.641" x2="721.285" y2="388.978" stroke="white" stroke-width="20"/>
<line y1="-10" x2="100" y2="-10" transform="matrix(0.86407 0.503371 0.503371 -0.86407 221 330)" stroke="white" stroke-width="20"/>
<line x1="301.44" y1="631.641" x2="215.033" y2="681.978" stroke="white" stroke-width="20"/>
<line y1="-10" x2="100" y2="-10" transform="matrix(0.86407 0.503371 0.503371 -0.86407 727 623)" stroke="white" stroke-width="20"/>
<line x1="511" y1="169" x2="511" y2="269" stroke="white" stroke-width="20"/>
</svg>
